<svg width="18" height="18" viewBox="0 0 18 18" fill="none" xmlns="http://www.w3.org/2000/svg">
<g clip-path="url(#clip0_232_12095)">
<path d="M16.8439 15.8758H1.2709C0.855774 15.8758 0.448242 15.4587 0.448242 15.0338V13.3688H17.5527V15.0563C17.5527 15.4592 17.2875 15.8758 16.8439 15.8758ZM1.01159 13.932V15.0336C1.01159 15.1482 1.1643 15.3125 1.2709 15.3125H16.8439C16.9274 15.3125 16.9897 15.1772 16.9897 15.0563V13.932H1.01159Z" fill="white"/>
<path d="M6.50678 17.9979L6.28516 17.48C6.46066 17.4049 6.60648 17.3372 6.68552 17.2943L6.70956 17.2811C6.74078 17.2641 6.77973 17.2429 6.78916 17.2343C6.79183 17.2295 6.81109 17.1922 6.84302 17.0322C6.88253 16.8344 6.87775 16.4755 6.87353 16.1589C6.87058 15.9386 6.86777 15.7302 6.88 15.5817L7.44138 15.6285C7.43125 15.7499 7.43392 15.9449 7.43673 16.1515C7.44166 16.5127 7.44658 16.8865 7.39539 17.1427C7.3172 17.5349 7.22762 17.64 6.97984 17.7754L6.95594 17.7886C6.826 17.8591 6.61886 17.9501 6.50678 17.9979ZM11.4756 18C11.335 17.9392 11.1425 17.8536 11.0244 17.7896L11.0076 17.7805C10.7411 17.6337 10.6717 17.5262 10.5953 17.1426C10.544 16.8861 10.5489 16.5179 10.5538 16.1619C10.5566 15.9594 10.5593 15.768 10.5492 15.6471L11.1106 15.6012C11.1227 15.7489 11.1198 15.9532 11.1172 16.1695C11.1128 16.4811 11.1082 16.8342 11.1477 17.0325C11.179 17.1893 11.1963 17.2333 11.2039 17.2454C11.2089 17.2484 11.248 17.27 11.2795 17.2874L11.2945 17.2957C11.37 17.3367 11.5144 17.4037 11.6988 17.4832L11.4756 18Z" fill="white"/>
<path d="M5.94233 17.4297H12.0608V17.9929H5.94233V17.4297ZM17.5478 13.9419H0.447266V4.06907C0.447266 3.66618 0.77675 3.33838 1.18175 3.33838H2.80766V3.90158H1.18175C1.08725 3.90158 1.01047 3.97668 1.01047 4.06893V13.3786H16.9845V4.06907C16.9845 3.97668 16.9076 3.90172 16.8131 3.90172H15.1926V3.33838H16.8131C17.2182 3.33838 17.5478 3.66618 17.5478 4.06907V13.9419Z" fill="white"/>
<path d="M4.24097 12.6289H1.74023V4.64136H2.80744V5.20456H2.30344V12.0657H4.24097V12.6289ZM16.2373 12.6289H13.7862V12.0657H15.6739V5.20456H15.1924V4.64136H16.2373V12.6289Z" fill="white"/>
<path d="M13.8486 3.852H14.4119V12.3472H13.8486V3.852ZM4.17258 12.3472H3.60938V0.0452812H10.7509V0.608484H4.17258V12.3472ZM14.4599 2.96128H11.4762V0H12.0393V2.39808H14.4599V2.96128Z" fill="white"/>
<path d="M5.60938 3.33972H9.4497V3.90292H5.60938V3.33972ZM5.60938 4.85411H12.191V5.41732H5.60938V4.85411ZM5.60938 6.3685H12.191V6.93171H5.60938V6.3685ZM5.60938 7.88261H12.191V8.44582H5.60938V7.88261ZM5.60938 9.39728H12.191V9.96049H5.60938V9.39728ZM5.60938 10.9114H12.191V11.4746H5.60938V10.9114Z" fill="white"/>
</g>
<defs>
<clipPath id="clip0_232_12095">
<rect width="18" height="18" fill="white"/>
</clipPath>
</defs>
</svg>
