<svg width="20" height="20" viewBox="0 0 20 20" fill="none" xmlns="http://www.w3.org/2000/svg">
<path d="M8.53394 0.0962991C8.57194 0.106256 8.60993 0.116214 8.64908 0.126473C8.77411 0.159361 8.89893 0.192953 9.02375 0.226556C9.11232 0.25001 9.2009 0.273419 9.28948 0.296788C9.52313 0.35855 9.75661 0.420912 9.99005 0.483401C10.222 0.545379 10.4541 0.606782 10.6862 0.66823C10.9578 0.740147 11.2293 0.812217 11.5006 0.884976C11.8734 0.984957 12.2462 1.0849 12.6202 1.1801C12.7618 1.21615 12.9032 1.25269 13.0446 1.28927C13.1091 1.3058 13.1737 1.32207 13.2384 1.33805C13.3259 1.35971 13.4133 1.38225 13.5006 1.405C13.5732 1.4233 13.5732 1.4233 13.6473 1.44196C13.7924 1.50226 13.849 1.56254 13.9318 1.69409C13.9548 1.85692 13.9602 1.93768 13.8608 2.07158C13.7695 2.13702 13.7695 2.13702 13.6073 2.17728C13.6073 2.96128 13.6073 3.74527 13.6073 4.55301C13.6742 4.57959 13.7411 4.60617 13.8101 4.63355C13.8746 4.67116 13.938 4.71062 14.0002 4.75183C14.0313 4.77213 14.0624 4.79242 14.0945 4.81333C14.1751 4.87515 14.1751 4.87515 14.2562 4.99595C14.2668 5.09167 14.2668 5.09167 14.2674 5.20607C14.2678 5.24894 14.2682 5.29182 14.2685 5.33599C14.2685 5.40545 14.2685 5.40545 14.2684 5.47632C14.2686 5.52393 14.2688 5.57154 14.269 5.6206C14.2692 5.7214 14.2692 5.8222 14.269 5.923C14.2689 6.07722 14.2699 6.2314 14.2709 6.38562C14.271 6.4835 14.271 6.58139 14.271 6.67928C14.2713 6.72542 14.2717 6.77157 14.2721 6.81911C14.2717 6.8838 14.2717 6.8838 14.2713 6.9498C14.2714 6.98762 14.2714 7.02543 14.2714 7.0644C14.2532 7.19177 14.21 7.26791 14.1346 7.37168C13.9983 7.43931 13.8744 7.44684 13.729 7.41194C13.6163 7.33388 13.5171 7.24932 13.4166 7.15634C13.3315 7.08167 13.3315 7.08167 13.2423 7.09107C13.1398 7.14033 13.0579 7.20359 12.9685 7.27353C12.8375 7.36676 12.7413 7.43295 12.5781 7.43963C12.4116 7.40827 12.3713 7.38079 12.2689 7.25088C12.248 7.14573 12.248 7.14573 12.2472 7.0251C12.2466 6.97981 12.246 6.93452 12.2453 6.88785C12.2456 6.81474 12.2456 6.81474 12.2459 6.74015C12.2457 6.68991 12.2454 6.63967 12.2452 6.58791C12.2449 6.48164 12.2449 6.37543 12.2455 6.26917C12.2462 6.1333 12.2453 5.9975 12.2438 5.86164C12.2427 5.73168 12.2431 5.60172 12.2434 5.47175C12.2428 5.42309 12.2423 5.37443 12.2417 5.3243C12.2455 4.98675 12.2455 4.98675 12.3658 4.82674C12.4631 4.7602 12.5576 4.69642 12.6618 4.6411C12.6929 4.62423 12.724 4.60736 12.7561 4.58998C12.8367 4.55301 12.8367 4.55301 12.9178 4.55301C12.9178 3.83546 12.9178 3.11791 12.9178 2.37862C12.7171 2.43177 12.5163 2.48492 12.3094 2.53968C12.2559 2.53968 12.2024 2.53968 12.1472 2.53968C12.1473 2.57597 12.1474 2.61226 12.1475 2.64965C12.1483 2.99208 12.1489 3.33451 12.1493 3.67694C12.1495 3.85298 12.1498 4.02901 12.1503 4.20505C12.1507 4.37501 12.151 4.54498 12.1511 4.71494C12.1511 4.7797 12.1513 4.84447 12.1515 4.90923C12.1518 5.00011 12.1518 5.091 12.1518 5.18189C12.1519 5.23357 12.152 5.28525 12.1521 5.3385C12.1475 5.46986 12.1307 5.59172 12.1067 5.72075C12.1053 5.78082 12.1058 5.84097 12.1084 5.901C12.1417 7.02346 11.8343 7.9983 11.0927 8.86154C11.0682 8.8917 11.0438 8.92186 11.0186 8.95293C10.7274 9.29969 10.3581 9.57676 9.95707 9.78767C9.9303 9.78767 9.90353 9.78767 9.87595 9.78767C9.87595 9.81425 9.87595 9.84083 9.87595 9.86821C9.9161 9.87288 9.95626 9.87755 9.99763 9.88236C11.0892 10.0393 12.3426 10.7468 13.1206 11.5191C13.2765 11.5041 13.4037 11.4473 13.5439 11.3807C13.6639 11.3239 13.767 11.2781 13.8972 11.2495C14.0264 11.2049 14.0264 11.2049 14.0856 11.0613C14.1054 11.007 14.1242 10.9524 14.1422 10.8975C14.2709 10.5253 14.2709 10.5253 14.459 10.4319C14.5636 10.4275 14.6671 10.4253 14.7718 10.4252C14.8028 10.425 14.8338 10.4249 14.8657 10.4248C14.9314 10.4246 14.9971 10.4245 15.0627 10.4245C15.163 10.4244 15.2633 10.4237 15.3637 10.4229C15.4275 10.4228 15.4913 10.4227 15.5551 10.4227C15.585 10.4224 15.615 10.4221 15.6458 10.4218C15.9184 10.423 15.9184 10.423 16.0408 10.5125C16.0908 10.6063 16.1316 10.6936 16.1701 10.7918C16.1806 10.8173 16.1911 10.8428 16.202 10.8691C16.2464 10.9775 16.2874 11.086 16.3247 11.197C16.3951 11.2385 16.3951 11.2385 16.4827 11.2676C16.5308 11.2856 16.5308 11.2856 16.5799 11.3039C16.6136 11.316 16.6474 11.328 16.6821 11.3405C16.7483 11.3648 16.8145 11.3891 16.8806 11.4136C16.9101 11.4242 16.9396 11.4348 16.97 11.4458C17.0548 11.4789 17.0548 11.4789 17.1392 11.526C17.2236 11.5728 17.2236 11.5728 17.3382 11.5144C17.4049 11.4794 17.4049 11.4794 17.473 11.4436C17.6684 11.3412 17.8063 11.2789 18.0282 11.3178C18.1497 11.3983 18.2491 11.4978 18.3526 11.5997C18.4164 11.6575 18.4802 11.7153 18.544 11.773C18.6088 11.8342 18.6734 11.8956 18.7379 11.957C18.7713 11.9873 18.8046 12.0176 18.839 12.0487C19.104 12.3035 19.104 12.3035 19.1107 12.5142C19.0951 12.6643 19.0515 12.7853 18.9787 12.9184C18.8979 13.0636 18.8979 13.0636 18.8864 13.2245C18.9313 13.3653 18.9852 13.5018 19.0421 13.6382C19.1605 13.9254 19.1605 13.9254 19.2043 14.0559C19.2722 14.0966 19.2722 14.0966 19.3563 14.1251C19.4022 14.1428 19.4022 14.1428 19.449 14.1608C19.4812 14.1727 19.5134 14.1846 19.5465 14.1969C19.61 14.2204 19.6733 14.2443 19.7365 14.2686C19.7647 14.279 19.7929 14.2894 19.822 14.3001C19.8938 14.3378 19.8938 14.3378 19.9749 14.4586C19.9844 14.5702 19.9892 14.6776 19.99 14.7892C19.9904 14.8216 19.9907 14.8541 19.9911 14.8875C19.9917 14.956 19.9921 15.0246 19.9922 15.0932C19.9927 15.1979 19.9947 15.3024 19.9967 15.4071C19.9971 15.4738 19.9974 15.5404 19.9976 15.6071C19.9984 15.6383 19.9992 15.6695 20 15.7016C19.9986 15.8638 19.9826 15.9388 19.8801 16.0675C19.7576 16.1609 19.657 16.1931 19.5085 16.2328C19.349 16.2893 19.2665 16.3192 19.1712 16.46C19.1214 16.5834 19.0815 16.7073 19.0421 16.8343C19.0113 16.8938 18.9794 16.9526 18.9458 17.0105C18.871 17.1761 18.8645 17.2281 18.9204 17.3981C18.948 17.4569 18.9759 17.5156 19.0041 17.5742C19.0897 17.7623 19.1189 17.8767 19.0827 18.0826C19.03 18.1559 19.03 18.1559 18.9605 18.2311C18.9348 18.2591 18.909 18.2871 18.8825 18.3159C18.8549 18.3452 18.8272 18.3745 18.7988 18.4047C18.7712 18.4343 18.7437 18.4638 18.7154 18.4942C18.6293 18.5854 18.5419 18.6751 18.454 18.7646C18.4102 18.8109 18.4102 18.8109 18.3654 18.8581C18.2344 18.9909 18.1434 19.078 17.9637 19.1374C17.7472 19.1251 17.5864 19.03 17.3955 18.9343C17.2266 18.8775 17.1751 18.8989 17.0142 18.9685C16.9615 18.984 16.9086 18.9991 16.8556 19.0136C16.5316 19.1056 16.5316 19.1056 16.2822 19.3159C16.2328 19.4272 16.1957 19.536 16.1625 19.653C16.053 19.8825 16.053 19.8825 15.9597 19.9751C15.8423 19.9847 15.729 19.9893 15.6115 19.9901C15.5768 19.9904 15.5422 19.9908 15.5066 19.9912C15.4333 19.9918 15.36 19.9921 15.2867 19.9923C15.1746 19.9927 15.0626 19.9947 14.9505 19.9968C14.8793 19.9971 14.8081 19.9974 14.7369 19.9976C14.7034 19.9984 14.6699 19.9992 14.6354 20C14.4026 19.9982 14.4026 19.9982 14.2771 19.881C14.2079 19.7602 14.1723 19.6457 14.1346 19.5121C14.0768 19.3551 14.0449 19.2719 13.9045 19.1772C13.7798 19.1271 13.6549 19.0877 13.5262 19.049C13.4598 19.0172 13.3939 18.9845 13.3285 18.9508C13.2094 18.8986 13.174 18.8858 13.042 18.9081C13.001 18.928 12.96 18.9479 12.9178 18.9685C12.8514 18.9987 12.7847 19.028 12.7176 19.0565C12.6854 19.0712 12.6533 19.0859 12.6201 19.1011C12.4734 19.1398 12.3762 19.1235 12.2283 19.0893C12.1111 19.001 12.1111 19.001 11.998 18.8856C11.9778 18.8653 11.9576 18.845 11.9367 18.824C11.8728 18.7595 11.8098 18.6941 11.7467 18.6287C11.7034 18.5849 11.6601 18.5412 11.6168 18.4975C11.2394 18.1147 11.2394 18.1147 11.2399 17.8578C11.2644 17.699 11.3409 17.5669 11.4173 17.4267C11.4667 17.2932 11.4447 17.2133 11.4172 17.0759C11.3936 17.0759 11.3699 17.0759 11.3456 17.0759C9.94686 17.0754 8.5481 17.0738 7.14935 17.0708C6.98146 17.0705 6.81357 17.0701 6.64568 17.0698C6.61226 17.0697 6.57883 17.0696 6.5444 17.0696C6.00295 17.0685 5.4615 17.0681 4.92004 17.068C4.36461 17.0679 3.80918 17.067 3.25375 17.0654C2.91092 17.0645 2.5681 17.0641 2.22526 17.0645C1.99029 17.0647 1.75532 17.0642 1.52034 17.0631C1.38469 17.0625 1.24907 17.0623 1.11342 17.0628C0.96641 17.0632 0.819459 17.0625 0.672456 17.0614C0.629491 17.0618 0.586526 17.0623 0.542259 17.0627C0.253698 17.0587 0.253698 17.0587 0.0950402 16.9391C-0.0616593 16.7194 0.0131982 16.4545 0.0546874 16.2019C0.0705206 16.1198 0.0869693 16.0378 0.103959 15.956C0.112988 15.9122 0.122016 15.8684 0.131318 15.8233C0.422696 14.4694 1.05549 13.2248 2.00703 12.2104C2.08509 12.1271 2.15925 12.0414 2.23327 11.9545C2.37583 11.7931 2.53053 11.6557 2.69715 11.5191C2.72787 11.4933 2.72787 11.4933 2.75921 11.4669C3.69526 10.6807 4.77288 10.1726 5.94181 9.82794C5.88879 9.79641 5.88879 9.79641 5.83471 9.76424C5.48171 9.54956 5.18 9.3128 4.88729 9.02261C4.85477 8.99079 4.82225 8.95897 4.78875 8.92619C4.16091 8.2759 3.76896 7.33405 3.72791 6.43644C3.72634 6.40533 3.72477 6.37422 3.72315 6.34217C3.70552 5.96648 3.70179 5.59061 3.69827 5.21458C3.69743 5.13798 3.69658 5.06137 3.69572 4.98477C3.69351 4.78579 3.69149 4.58681 3.68952 4.38783C3.68746 4.18373 3.68521 3.97962 3.68298 3.77552C3.67866 3.377 3.67453 2.97848 3.67055 2.57995C3.62204 2.56717 3.57353 2.55438 3.52355 2.54121C3.34362 2.49367 3.16384 2.44559 2.9841 2.39734C2.90628 2.37654 2.82843 2.35588 2.75053 2.33537C2.63857 2.30587 2.52677 2.27584 2.41498 2.24571C2.38013 2.23664 2.34527 2.22758 2.30935 2.21824C2.27688 2.20938 2.24441 2.20052 2.21096 2.19139C2.18241 2.18379 2.15386 2.17619 2.12444 2.16836C2.03398 2.13116 1.98766 2.0919 1.92654 2.01622C1.88777 1.86773 1.86946 1.77454 1.92852 1.63091C2.03224 1.50261 2.14109 1.47229 2.29542 1.4315C2.32413 1.42327 2.35284 1.41505 2.38243 1.40658C2.4736 1.38076 2.56503 1.35612 2.65659 1.33169C2.71358 1.31612 2.77056 1.30055 2.82754 1.28497C3.00652 1.23659 3.18602 1.19027 3.36557 1.14404C3.43248 1.12668 3.49939 1.1093 3.56629 1.09191C3.74299 1.04602 3.91973 1.00031 4.09649 0.954649C4.38882 0.879107 4.68109 0.803337 4.97336 0.727546C5.04573 0.708779 5.11811 0.690019 5.19049 0.671265C5.62971 0.557423 6.06843 0.442051 6.50629 0.323133C6.54937 0.311484 6.59244 0.299834 6.63683 0.287832C6.82687 0.236411 7.01676 0.18455 7.20643 0.131778C7.27147 0.114116 7.33653 0.0964753 7.40158 0.0788594C7.44287 0.0670333 7.44287 0.0670333 7.485 0.0549683C7.84552 -0.0411832 8.17863 -0.000849224 8.53394 0.0962991ZM7.52196 0.756874C7.47995 0.767977 7.47995 0.767977 7.4371 0.779305C7.34445 0.803858 7.2519 0.828766 7.15934 0.853677C7.09397 0.871079 7.02858 0.888459 6.96319 0.905819C6.79038 0.951761 6.61765 0.998005 6.44493 1.04431C6.27323 1.09029 6.10146 1.13599 5.92969 1.18171C5.72922 1.23508 5.52878 1.28851 5.32841 1.34224C5.03079 1.42205 4.73309 1.50149 4.43487 1.57909C4.36066 1.59852 4.36066 1.59852 4.28496 1.61834C4.19438 1.64202 4.10374 1.66549 4.01304 1.68871C3.97388 1.699 3.93471 1.70928 3.89436 1.71987C3.86062 1.72858 3.82689 1.73729 3.79213 1.74627C3.7032 1.77087 3.7032 1.77087 3.62999 1.85515C3.66866 1.86521 3.70732 1.87527 3.74716 1.88563C4.11576 1.9815 4.48434 2.07742 4.85291 2.17339C5.04229 2.2227 5.23167 2.27199 5.42106 2.32125C5.60411 2.36885 5.78713 2.4165 5.97015 2.46417C6.04184 2.48284 6.11353 2.50148 6.18523 2.52011C6.51317 2.60532 6.84101 2.6905 7.16723 2.78203C7.20856 2.79359 7.2499 2.80515 7.29249 2.81706C7.36398 2.83723 7.43536 2.85775 7.50661 2.87875C7.53711 2.88738 7.56762 2.896 7.59905 2.9049C7.62405 2.91223 7.64905 2.91956 7.67481 2.92712C7.95224 2.97299 8.18968 2.92864 8.45623 2.85555C8.50863 2.84171 8.50863 2.84171 8.56209 2.82758C8.67679 2.79717 8.79133 2.76619 8.90588 2.7352C8.98618 2.71378 9.06649 2.69241 9.1468 2.67106C9.35789 2.61487 9.56885 2.55819 9.77978 2.50141C9.99334 2.44401 10.207 2.38707 10.4207 2.33009C11.01 2.17283 11.5992 2.01504 12.1878 1.85515C12.1558 1.76912 12.1558 1.76912 12.0782 1.74773C12.0329 1.73582 12.0329 1.73581 11.9866 1.72366C11.9521 1.7144 11.9175 1.70514 11.8819 1.6956C11.8437 1.68573 11.8054 1.67585 11.7661 1.66567C11.726 1.65506 11.686 1.64444 11.6448 1.63351C11.5117 1.59832 11.3786 1.56361 11.2454 1.52893C11.1532 1.50469 11.061 1.48043 10.9688 1.45615C10.7752 1.40524 10.5815 1.35456 10.3878 1.30404C10.1394 1.23926 9.89119 1.17397 9.643 1.10851C9.45245 1.0583 9.26183 1.00834 9.0712 0.958456C8.97965 0.934475 8.88813 0.910425 8.79662 0.886303C8.66861 0.852606 8.54053 0.819231 8.41241 0.785943C8.37452 0.775904 8.33663 0.765864 8.29759 0.75552C8.26256 0.746489 8.22753 0.737458 8.19144 0.728152C8.16117 0.72024 8.13091 0.712327 8.09972 0.704174C7.89282 0.66542 7.72346 0.703084 7.52196 0.756874ZM4.40059 2.74102C4.40059 3.51172 4.40059 4.28242 4.40059 5.07648C4.56569 5.13112 4.70895 5.17366 4.87707 5.20554C4.92208 5.21414 4.96709 5.22274 5.01347 5.2316C5.06175 5.24062 5.11004 5.24964 5.15979 5.25894C5.21045 5.26846 5.2611 5.27799 5.31329 5.28781C5.42073 5.30793 5.52818 5.32798 5.63566 5.34791C5.74401 5.36802 5.85231 5.3884 5.96056 5.40905C7.27754 5.65975 8.35828 5.6917 9.67316 5.44391C9.74804 5.43009 9.82292 5.4163 9.89782 5.40255C10.0827 5.3685 10.2674 5.33386 10.4521 5.29905C10.5711 5.27674 10.6903 5.25482 10.8094 5.23295C10.8878 5.21844 10.9662 5.20393 11.0445 5.18942C11.0814 5.18271 11.1182 5.17601 11.1562 5.16911C11.1899 5.16283 11.2235 5.15654 11.2583 5.15007C11.288 5.14459 11.3178 5.13911 11.3485 5.13347C11.4181 5.12275 11.4181 5.12275 11.4577 5.07648C11.4615 5.00358 11.4625 4.93052 11.4623 4.85752C11.4623 4.81077 11.4623 4.76401 11.4623 4.71584C11.462 4.63952 11.462 4.63952 11.4617 4.56167C11.4616 4.50988 11.4616 4.4581 11.4615 4.40475C11.4614 4.26686 11.461 4.12897 11.4605 3.99108C11.4601 3.85047 11.4599 3.70985 11.4597 3.56924C11.4593 3.29316 11.4586 3.01709 11.4577 2.74102C11.0346 2.83729 10.6143 2.94043 10.1957 3.05457C10.0456 3.09541 9.89534 3.13556 9.74509 3.17585C9.55605 3.22659 9.36707 3.27752 9.17826 3.3291C9.02351 3.37136 8.8686 3.41298 8.71357 3.45419C8.65517 3.46984 8.59683 3.48572 8.53856 3.50183C8.45717 3.52431 8.3756 3.54598 8.29394 3.56748C8.24784 3.57995 8.20173 3.59243 8.15423 3.60529C7.8641 3.6488 7.58979 3.58031 7.31033 3.50442C7.27909 3.49617 7.24785 3.48791 7.21566 3.47941C7.11375 3.45242 7.01194 3.42507 6.91013 3.39771C6.83892 3.37878 6.7677 3.35988 6.69648 3.34101C6.51001 3.29152 6.32362 3.24173 6.13725 3.19186C5.90988 3.13108 5.68242 3.07062 5.45496 3.01016C5.27825 2.96318 5.10155 2.91614 4.9249 2.86891C4.8613 2.85194 4.79769 2.83497 4.73409 2.818C4.69023 2.80624 4.69023 2.80624 4.64548 2.79423C4.52471 2.75689 4.52471 2.75689 4.40059 2.74102ZM12.9584 5.27781C12.9304 5.39428 12.9304 5.39428 12.9386 5.52743C12.9392 5.5761 12.9399 5.62476 12.9406 5.6749C12.9423 5.72574 12.9439 5.77658 12.9457 5.82896C12.9466 5.88027 12.9475 5.93158 12.9485 5.98445C12.9509 6.11135 12.9542 6.23816 12.9584 6.36501C12.9888 6.35146 13.0192 6.33792 13.0506 6.32396C13.2309 6.25959 13.3893 6.30629 13.5667 6.36501C13.5738 6.1939 13.5781 6.02282 13.582 5.85161C13.584 5.80303 13.586 5.75444 13.5881 5.70439C13.5904 5.57158 13.5896 5.44899 13.5667 5.31808C13.4632 5.19683 13.4632 5.19683 13.3234 5.15701C13.1487 5.15701 13.0907 5.16906 12.9584 5.27781ZM4.44115 5.80128C4.31056 6.62824 4.5772 7.48985 5.05939 8.16732C5.63396 8.92496 6.44641 9.43724 7.39326 9.58751C8.33437 9.71825 9.21264 9.48352 9.99002 8.94962C10.7508 8.36646 11.2487 7.56886 11.4052 6.62311C11.4389 6.35038 11.4289 6.0752 11.4172 5.80128C11.0724 5.84436 10.7318 5.90186 10.3905 5.96612C10.3283 5.97778 10.3283 5.97778 10.2648 5.98968C10.0922 6.02211 9.91967 6.05462 9.74721 6.08773C8.35484 6.35428 7.1767 6.30517 5.78396 6.03336C5.59463 5.99653 5.40513 5.9606 5.21566 5.92455C5.11555 5.90546 5.01548 5.88619 4.91544 5.86675C4.87082 5.85814 4.82619 5.84953 4.78021 5.84066C4.74103 5.83304 4.70185 5.82541 4.66148 5.81755C4.55949 5.79798 4.55949 5.79798 4.44115 5.80128ZM6.9152 10.3514C7.07743 10.5216 7.25352 10.6619 7.44246 10.8019C7.4708 10.8234 7.49913 10.8448 7.52833 10.8669C7.73181 11.0305 7.73181 11.0305 7.96972 11.1165C8.07315 11.0541 8.15333 10.9956 8.24348 10.9177C8.29364 10.8763 8.34381 10.8349 8.39399 10.7936C8.41834 10.7731 8.44269 10.7526 8.46778 10.7315C8.56138 10.6537 8.65824 10.5806 8.75553 10.5074C8.80533 10.4699 8.85469 10.4317 8.90255 10.3917C8.90255 10.3784 8.90255 10.3651 8.90255 10.3514C8.70949 10.3135 8.52213 10.3053 8.32603 10.3058C8.29464 10.3058 8.26324 10.3057 8.2309 10.3057C8.16481 10.3056 8.09872 10.3057 8.03262 10.3059C7.93215 10.3061 7.83168 10.3059 7.7312 10.3056C7.66669 10.3057 7.60218 10.3057 7.53768 10.3058C7.50797 10.3057 7.47826 10.3056 7.44765 10.3055C7.26622 10.3064 7.09427 10.3221 6.9152 10.3514ZM9.54895 10.739C9.49844 10.7793 9.4479 10.8196 9.39733 10.8599C9.37017 10.8817 9.343 10.9034 9.31501 10.9259C9.12357 11.0778 8.92888 11.2256 8.73493 11.3743C8.70513 11.3972 8.67533 11.4202 8.64463 11.4438C8.61808 11.4642 8.59154 11.4845 8.56419 11.5055C8.49227 11.5612 8.49227 11.5612 8.41586 11.6399C8.4622 11.6933 8.4622 11.6933 8.50949 11.7477C8.5518 11.7965 8.5941 11.8453 8.63639 11.8941C8.65837 11.9195 8.68035 11.9448 8.70299 11.9709C8.87238 12.1669 9.03607 12.3665 9.19692 12.5695C9.22024 12.595 9.24355 12.6204 9.26758 12.6466C9.29435 12.6466 9.32112 12.6466 9.3487 12.6466C9.36623 12.615 9.38376 12.5834 9.40183 12.5509C9.73471 11.9515 10.0678 11.3521 10.4032 10.7541C10.2968 10.6836 10.2184 10.6472 10.099 10.6081C10.0677 10.5976 10.0363 10.5871 10.004 10.5763C9.79363 10.5196 9.7038 10.6127 9.54895 10.739ZM5.67311 10.6333C5.6008 10.6557 5.6008 10.6557 5.52703 10.6786C5.47135 10.696 5.47135 10.696 5.41455 10.7138C5.68047 11.218 5.9611 11.7139 6.24209 12.2099C6.33178 12.3686 6.42082 12.5277 6.50962 12.6869C6.66797 12.534 6.81294 12.3734 6.95576 12.2062C6.98666 12.1703 6.98666 12.1703 7.01818 12.1336C7.05891 12.0862 7.09947 12.0386 7.13986 11.9909C7.17943 11.9447 7.21979 11.8993 7.2609 11.8545C7.32511 11.785 7.32511 11.785 7.4019 11.6802C7.34986 11.5252 7.25561 11.4688 7.12813 11.3757C7.08007 11.3398 7.03201 11.304 6.98396 11.2681C6.95919 11.2498 6.93442 11.2314 6.90891 11.2125C6.8128 11.1409 6.7178 11.0679 6.62283 10.9948C6.19585 10.6177 6.19585 10.6177 5.67311 10.6333ZM3.50831 11.7607C3.47198 11.7878 3.43564 11.8148 3.3982 11.8427C2.03035 12.9026 1.02056 14.5186 0.750356 16.2303C0.750356 16.2702 0.750356 16.3101 0.750356 16.3511C4.16333 16.3511 7.5763 16.3511 11.0927 16.3511C10.936 16.2474 10.7696 16.1895 10.5944 16.1223C10.4843 16.0693 10.4843 16.0693 10.4032 15.9485C10.3957 15.8359 10.3928 15.7275 10.3939 15.615C10.3939 15.5824 10.3939 15.5498 10.3939 15.5162C10.394 15.4473 10.3944 15.3784 10.3949 15.3094C10.3956 15.2039 10.3957 15.0984 10.3957 14.9929C10.3959 14.926 10.3961 14.859 10.3964 14.7921C10.3964 14.7605 10.3965 14.7289 10.3965 14.6963C10.3977 14.5665 10.4021 14.4618 10.4438 14.3378C10.5147 14.3052 10.5147 14.3052 10.606 14.2799C10.6553 14.264 10.6553 14.264 10.7057 14.2478C10.8088 14.217 10.8088 14.217 10.9056 14.1962C11.0436 14.1562 11.1391 14.1174 11.2121 13.9882C11.2741 13.8494 11.3228 13.7074 11.3688 13.5627C11.4052 13.449 11.4445 13.3556 11.4983 13.2506C11.4885 13.0808 11.4082 12.9422 11.3296 12.7945C11.2774 12.6299 11.2513 12.4941 11.2955 12.3245C11.3998 12.1772 11.5269 12.0604 11.6605 11.9394C11.6953 11.9065 11.7302 11.8736 11.766 11.8396C11.8518 11.7588 11.9382 11.6789 12.0255 11.5997C11.857 11.4105 11.6683 11.3025 11.445 11.1844C11.4111 11.1661 11.3772 11.1478 11.3423 11.129C11.2593 11.0842 11.1761 11.0398 11.0927 10.9957C10.9814 11.0944 10.9174 11.2012 10.846 11.3307C10.8098 11.396 10.8098 11.396 10.7728 11.4626C10.7601 11.4858 10.7474 11.5089 10.7342 11.5328C10.6943 11.6055 10.6541 11.6781 10.6138 11.7506C10.5579 11.8513 10.5021 11.9519 10.4464 12.0527C10.3164 12.2873 10.185 12.5211 10.0534 12.7548C10.0304 12.7959 10.0074 12.8369 9.98371 12.8792C9.62531 13.516 9.62531 13.516 9.51093 13.5727C9.35156 13.5877 9.26042 13.5957 9.12658 13.5037C9.02575 13.413 8.94363 13.3213 8.85946 13.2154C8.7122 13.033 8.56186 12.854 8.40825 12.6768C8.37864 12.6426 8.37864 12.6426 8.34843 12.6078C8.30975 12.5632 8.27105 12.5186 8.23233 12.474C8.13106 12.3572 8.03011 12.2402 7.92916 12.1231C7.76983 12.2772 7.62288 12.4389 7.47795 12.6063C7.45516 12.6325 7.43237 12.6587 7.40889 12.6857C7.2363 12.8845 7.06519 13.0846 6.89554 13.2858C6.84842 13.3415 6.80072 13.3968 6.75297 13.4519C6.73211 13.4762 6.71125 13.5005 6.68976 13.5255C6.59968 13.5983 6.50151 13.5915 6.38937 13.5966C6.207 13.5438 6.11172 13.3236 6.02451 13.1669C6.00231 13.1273 5.98011 13.0877 5.95724 13.0468C5.93375 13.0044 5.91025 12.9621 5.88604 12.9184C5.8355 12.828 5.78497 12.7376 5.73442 12.6472C5.70851 12.6007 5.6826 12.5543 5.6559 12.5064C5.52818 12.2775 5.39902 12.0494 5.27006 11.8211C5.1149 11.5463 4.96007 11.2712 4.80618 10.9957C4.40515 10.9957 3.81789 11.5246 3.50831 11.7607ZM14.7835 11.1165C14.7118 11.3095 14.7118 11.3095 14.6416 11.5031C14.5921 11.6311 14.5573 11.7067 14.4483 11.7944C14.3176 11.8496 14.1867 11.8931 14.0509 11.9344C13.8434 11.9988 13.6573 12.0749 13.4654 12.1785C13.3237 12.2514 13.2543 12.2838 13.0927 12.2892C12.9486 12.2406 12.8143 12.1819 12.6791 12.1128C12.5706 12.0749 12.5359 12.0751 12.4311 12.1231C12.3491 12.196 12.2735 12.2682 12.1979 12.3471C12.1774 12.3681 12.1568 12.389 12.1356 12.4106C12.0851 12.4621 12.035 12.5141 11.985 12.5661C11.9996 12.5972 12.0143 12.6284 12.0293 12.6604C12.0482 12.7024 12.067 12.7443 12.0864 12.7875C12.1052 12.8286 12.124 12.8698 12.1434 12.9121C12.2311 13.1833 12.2055 13.3709 12.0807 13.6186C12.0658 13.6467 12.051 13.6747 12.0357 13.7036C11.9302 13.9102 11.8452 14.102 11.7873 14.3277C11.7458 14.4621 11.7226 14.5227 11.6098 14.6091C11.5065 14.6609 11.404 14.701 11.2955 14.7405C11.2152 14.7803 11.1349 14.8202 11.0521 14.8613C11.0521 15.1004 11.0521 15.3396 11.0521 15.5861C11.1442 15.6259 11.2362 15.6658 11.331 15.7069C11.3599 15.7195 11.3888 15.7321 11.4186 15.7451C11.5548 15.807 11.5548 15.807 11.7011 15.8277C11.71 15.8608 11.71 15.8608 11.7191 15.8945C11.7824 16.1164 11.8588 16.3308 11.9444 16.5449C11.9545 16.5704 11.9646 16.5959 11.975 16.6222C12.0208 16.735 12.0689 16.8388 12.1334 16.9424C12.2211 17.0929 12.2143 17.229 12.1878 17.3981C12.15 17.4957 12.1072 17.5862 12.0571 17.6782C12.0207 17.7577 12.0207 17.7577 12.0268 17.8371C12.0873 17.967 12.1887 18.0558 12.2917 18.1531C12.3128 18.1735 12.3339 18.1939 12.3556 18.2149C12.4076 18.265 12.4599 18.3148 12.5122 18.3645C12.5436 18.3499 12.575 18.3354 12.6073 18.3204C12.6495 18.3017 12.6918 18.283 12.7353 18.2638C12.7767 18.2451 12.8181 18.2264 12.8608 18.2072C13.0862 18.1353 13.2673 18.1273 13.4799 18.2279C13.5328 18.2561 13.5854 18.2849 13.6377 18.3141C14.0674 18.5518 14.0674 18.5518 14.5401 18.6463C14.547 18.6688 14.5539 18.6912 14.5611 18.7143C14.6307 18.9321 14.7167 19.1287 14.8241 19.3309C15.0516 19.3309 15.2791 19.3309 15.5135 19.3309C15.6063 19.1562 15.6768 19.0079 15.7189 18.8149C15.7483 18.7229 15.7483 18.7229 15.7974 18.6463C15.9032 18.5961 16.0025 18.5749 16.1175 18.5524C16.3951 18.4932 16.6568 18.3653 16.9052 18.2311C17.0594 18.1547 17.164 18.1371 17.3387 18.1631C17.5044 18.2229 17.6652 18.2913 17.8254 18.3645C17.9082 18.2898 17.9899 18.2143 18.0712 18.138C18.0948 18.1169 18.1183 18.0959 18.1426 18.0743C18.2075 18.0125 18.263 17.956 18.3121 17.8813C18.3106 17.7316 18.281 17.6567 18.2081 17.5264C18.1286 17.3514 18.1105 17.2246 18.1498 17.0357C18.2011 16.9189 18.2572 16.8066 18.3182 16.6946C18.4357 16.4776 18.5124 16.2591 18.5863 16.0235C18.7054 15.7501 19.0256 15.6898 19.2855 15.5861C19.2855 15.3469 19.2855 15.1077 19.2855 14.8613C19.0773 14.7554 19.0773 14.7554 18.8636 14.6622C18.741 14.6143 18.6585 14.5742 18.5877 14.4612C18.548 14.3658 18.5165 14.2707 18.487 14.1717C18.4641 14.1025 18.4411 14.0333 18.4179 13.9642C18.407 13.9312 18.3961 13.8982 18.3849 13.8642C18.3446 13.7516 18.292 13.6493 18.2335 13.5451C18.1463 13.3779 18.107 13.2358 18.1498 13.0493C18.2093 12.8842 18.278 12.7249 18.3526 12.5661C18.2764 12.4839 18.1995 12.4028 18.1219 12.322C18.0897 12.2869 18.0897 12.2869 18.0567 12.2511C17.9957 12.1883 17.9382 12.1325 17.8659 12.0829C17.7594 12.076 17.7594 12.076 17.6631 12.1231C17.6306 12.1365 17.5981 12.1499 17.5646 12.1637C17.4986 12.1937 17.4327 12.2239 17.3669 12.2543C17.1196 12.3219 16.9234 12.2295 16.7075 12.1131C16.5069 12.0065 16.3142 11.9299 16.0966 11.8639C15.8114 11.7671 15.8114 11.7671 15.729 11.6072C15.7095 11.5516 15.6921 11.4952 15.6758 11.4386C15.6356 11.3323 15.5955 11.226 15.5541 11.1165C15.2998 11.1165 15.0455 11.1165 14.7835 11.1165Z" fill="#777777"/>
<path d="M16.7465 13.3115C17.2371 13.7169 17.5372 14.2749 17.6226 14.9015C17.6738 15.6609 17.4807 16.3094 16.9843 16.9007C16.7204 17.1731 16.3913 17.3747 16.0408 17.5188C16.0096 17.5317 15.9784 17.5446 15.9463 17.5578C15.4067 17.7401 14.734 17.699 14.2157 17.4786C14.1802 17.464 14.1446 17.4494 14.108 17.4344C13.5366 17.1761 13.1158 16.7148 12.8772 16.1402C12.6508 15.5172 12.6341 14.8706 12.889 14.251C13.2049 13.5868 13.6943 13.1538 14.378 12.8882C15.2029 12.6336 16.0615 12.7866 16.7465 13.3115ZM13.8119 14.0737C13.4837 14.4818 13.3548 14.951 13.4046 15.4652C13.5036 15.9637 13.7508 16.3819 14.1752 16.6732C14.6544 16.9439 15.1184 17.0477 15.6633 16.92C16.1459 16.7475 16.5218 16.4423 16.7608 15.9912C16.9819 15.5218 16.9913 15.0738 16.8219 14.581C16.6286 14.1172 16.2916 13.7893 15.8362 13.5803C15.097 13.2852 14.3523 13.5105 13.8119 14.0737Z" fill="#777777"/>
</svg>
