<svg width="20" height="20" viewBox="0 0 20 20" fill="none" xmlns="http://www.w3.org/2000/svg">
<path d="M10.5789 2.63317C11.4037 3.27726 11.9139 4.14183 12.0131 5.14598C12.068 6.02303 11.8165 6.73202 11.3467 7.48614C10.8852 8.22892 10.6517 8.9996 10.6298 9.86154C10.6287 9.90053 10.6277 9.93952 10.6267 9.97969C10.6248 10.0597 10.6235 10.1396 10.6226 10.2196C10.6135 10.5168 10.5569 10.7367 10.3428 10.9626C10.3176 10.9812 10.2924 10.9998 10.2665 11.0189C10.2411 11.0384 10.2158 11.0578 10.1896 11.0778C10.1214 11.1192 10.1214 11.1192 10.0354 11.1192C10.0369 11.1473 10.0384 11.1754 10.04 11.2043C10.0474 11.448 10.0514 11.6703 9.90647 11.8808C9.77856 12.0064 9.64357 12.1237 9.47655 12.2015C9.46879 12.2823 9.46501 12.3635 9.46311 12.4446C9.4417 12.7589 9.34053 12.9463 9.095 13.1587C8.79802 13.347 8.49483 13.3376 8.14649 13.3366C8.10152 13.3372 8.05654 13.3378 8.01021 13.3385C7.67113 13.3387 7.43238 13.2942 7.14424 13.1186C6.92818 12.9079 6.85048 12.704 6.8433 12.4145C6.83519 12.2552 6.83519 12.2552 6.73834 12.13C6.67743 12.0908 6.61571 12.0526 6.55327 12.0155C6.41539 11.9283 6.34452 11.8252 6.29515 11.6804C6.28106 11.5845 6.26866 11.4885 6.25754 11.3923C6.23854 11.177 6.23854 11.177 6.08826 11.024C6.04303 11.0025 5.99781 10.981 5.95122 10.9588C5.75469 10.7322 5.6905 10.5221 5.6842 10.233C5.65319 9.15348 5.44908 8.24619 4.86181 7.30935C4.33812 6.47328 4.13915 5.52886 4.39008 4.56971C4.66158 3.61982 5.29158 2.82823 6.20111 2.33227C7.59117 1.6057 9.32561 1.69461 10.5789 2.63317ZM5.99421 3.342C5.94342 3.38765 5.94342 3.38765 5.8916 3.43423C5.28097 4.0249 5.03149 4.75063 5.03241 5.55902C5.04551 6.22175 5.34229 6.71251 5.68655 7.28022C5.89409 7.62732 6.05822 7.97486 6.17155 8.35807C6.18237 8.39386 6.19318 8.42966 6.20432 8.46654C6.30231 8.80021 6.36677 9.13384 6.42413 9.47553C6.6795 9.47553 6.93487 9.47553 7.19798 9.47553C7.19798 8.52303 7.19798 7.57053 7.19798 6.58916C6.94261 6.56271 6.68724 6.53625 6.42413 6.50899C6.08762 6.38961 5.85299 6.25017 5.69209 5.94383C5.56831 5.64224 5.56073 5.35583 5.68252 5.05328C5.82223 4.7622 6.00506 4.57825 6.32975 4.46103C6.64346 4.37735 6.96581 4.38039 7.26247 4.51208C7.57532 4.68107 7.75614 4.89788 7.86755 5.2166C7.89459 5.34915 7.90172 5.48257 7.91004 5.61702C7.91189 5.64498 7.91375 5.67293 7.91566 5.70174C7.9202 5.77037 7.92454 5.83901 7.92884 5.90766C8.0849 5.90766 8.24096 5.90766 8.40175 5.90766C8.40236 5.86022 8.40297 5.81278 8.4036 5.76391C8.41427 5.36201 8.43128 5.0272 8.72873 4.71205C8.97192 4.49774 9.22621 4.4191 9.55716 4.40685C9.85555 4.41562 10.1103 4.47114 10.3394 4.65693C10.6378 4.95669 10.7056 5.20464 10.6954 5.60903C10.663 5.90556 10.5397 6.11717 10.2934 6.30855C9.95424 6.56596 9.55846 6.55307 9.13262 6.58916C9.13262 7.54167 9.13262 8.49417 9.13262 9.47553C9.38799 9.47553 9.64336 9.47553 9.90647 9.47553C9.91589 9.41445 9.92531 9.35337 9.93502 9.29044C10.0873 8.34634 10.41 7.6182 10.903 6.78389C11.3174 6.08035 11.3782 5.35342 11.1532 4.58474C10.8751 3.80991 10.2971 3.1953 9.51954 2.82085C8.32934 2.31023 6.94429 2.48757 5.99421 3.342ZM6.33815 5.26625C6.27584 5.42724 6.27576 5.54535 6.34889 5.70221C6.47231 5.84195 6.58081 5.88537 6.76806 5.90766C6.91145 5.91074 7.05459 5.91 7.19798 5.90766C7.2341 5.55925 7.2341 5.55925 7.12006 5.23868C6.99992 5.12026 6.92968 5.06982 6.75463 5.04826C6.54886 5.07103 6.47404 5.12143 6.33815 5.26625ZM9.2186 5.18607C9.11246 5.33077 9.12384 5.46581 9.12724 5.63706C9.12802 5.68771 9.12879 5.73835 9.12959 5.79053C9.13059 5.82918 9.13159 5.86784 9.13262 5.90766C9.44814 5.92364 9.6976 5.92211 9.94677 5.71975C10.0146 5.58203 10.0267 5.45286 9.99245 5.30633C9.89891 5.19845 9.82433 5.12773 9.69151 5.0658C9.49222 5.04928 9.37749 5.07083 9.2186 5.18607ZM7.92884 6.58916C7.92884 7.54167 7.92884 8.49417 7.92884 9.47553C8.0849 9.47553 8.24096 9.47553 8.40175 9.47553C8.40175 8.52303 8.40175 7.57053 8.40175 6.58916C8.24569 6.58916 8.08963 6.58916 7.92884 6.58916ZM6.42413 10.157C6.43416 10.423 6.43416 10.423 6.55311 10.5178C6.68971 10.5305 6.68971 10.5305 6.85286 10.5288C6.8837 10.529 6.91453 10.5293 6.9463 10.5295C7.04851 10.53 7.15069 10.53 7.2529 10.5299C7.32379 10.53 7.39469 10.5302 7.46559 10.5304C7.61431 10.5307 7.76302 10.5307 7.91175 10.5305C8.10249 10.5303 8.29321 10.5309 8.48396 10.5319C8.63041 10.5325 8.77686 10.5325 8.92332 10.5324C8.99365 10.5324 9.06398 10.5326 9.13431 10.533C9.23261 10.5335 9.33088 10.5332 9.42918 10.5328C9.48515 10.5328 9.54112 10.5328 9.59879 10.5328C9.73095 10.5269 9.73095 10.5269 9.81807 10.4718C9.88478 10.377 9.88478 10.377 9.86348 10.157C8.72849 10.157 7.59351 10.157 6.42413 10.157ZM7.02602 11.1993C7.02602 11.2919 7.02602 11.3845 7.02602 11.48C7.13307 11.5798 7.16608 11.5704 7.31378 11.5711C7.35567 11.5715 7.39756 11.5719 7.44072 11.5723C7.48609 11.5723 7.53145 11.5722 7.57819 11.5722C7.62462 11.5724 7.67106 11.5725 7.7189 11.5727C7.8172 11.5729 7.9155 11.573 8.0138 11.5728C8.16468 11.5727 8.31553 11.5736 8.46641 11.5746C8.56174 11.5747 8.65707 11.5747 8.75241 11.5747C8.79777 11.5751 8.84314 11.5754 8.88988 11.5758C8.93177 11.5756 8.97366 11.5753 9.01682 11.5751C9.07228 11.5751 9.07228 11.5751 9.12886 11.5751C9.15848 11.5702 9.18809 11.5652 9.2186 11.5601C9.32843 11.4306 9.32843 11.4306 9.30458 11.1993C8.55266 11.1993 7.80073 11.1993 7.02602 11.1993ZM7.58491 12.2416C7.55531 12.5004 7.55531 12.5004 7.6452 12.5991C7.81782 12.6662 7.983 12.6583 8.16799 12.6551C8.22364 12.6552 8.22364 12.6552 8.28042 12.6554C8.5045 12.6567 8.5045 12.6567 8.7027 12.5623C8.7027 12.4565 8.7027 12.3507 8.7027 12.2416C8.33383 12.2416 7.96496 12.2416 7.58491 12.2416Z" fill="#777777"/>
<path d="M3.62923 6.30863C3.75108 6.40026 3.75859 6.47071 3.79045 6.61431C3.78307 6.77889 3.7124 6.8537 3.5938 6.97197C3.54121 7.02453 3.54121 7.02453 3.48756 7.07816C3.28563 7.27339 3.08077 7.46566 2.87419 7.65661C2.83038 7.69726 2.78657 7.73792 2.74278 7.77859C2.63712 7.87668 2.53133 7.97464 2.42546 8.07252C2.51523 8.33971 2.62565 8.59068 2.7547 8.84321C2.83485 9.00686 2.88807 9.13263 2.85538 9.31527C2.79384 9.44382 2.71843 9.56419 2.64311 9.68608C2.41855 10.0626 2.26399 10.4449 2.13184 10.8574C2.02577 11.1724 2.02577 11.1724 1.8842 11.2989C1.68343 11.3823 1.48162 11.4591 1.27543 11.5302C1.23426 11.5447 1.19308 11.5593 1.15065 11.5743C0.847167 11.6805 0.847167 11.6805 0.748782 11.6805C0.748782 12.17 0.748782 12.6594 0.748782 13.1638C0.876467 13.2034 1.00415 13.2431 1.13571 13.284C1.27083 13.3281 1.40483 13.3747 1.53876 13.4218C1.57284 13.4333 1.60692 13.4448 1.64204 13.4567C1.67479 13.4683 1.70754 13.4799 1.74129 13.4918C1.77057 13.502 1.79985 13.5121 1.83002 13.5226C2.00304 13.6141 2.05866 13.7581 2.11428 13.9286C2.12762 13.9682 2.14097 14.0079 2.15472 14.0487C2.16869 14.0907 2.18267 14.1327 2.19707 14.176C2.34758 14.6135 2.51735 15.0482 2.8008 15.4283C2.87804 15.5708 2.87755 15.6501 2.85538 15.8096C2.79293 15.9638 2.71611 16.1105 2.63773 16.2581C2.59647 16.3361 2.55564 16.4144 2.51531 16.4928C2.48795 16.5443 2.48795 16.5443 2.46005 16.5968C2.41911 16.7089 2.4147 16.745 2.46845 16.8519C2.53992 16.9287 2.61091 16.9987 2.68896 17.0693C2.72179 17.0996 2.72179 17.0996 2.75528 17.1306C2.82507 17.195 2.8953 17.259 2.96555 17.3229C3.01302 17.3666 3.06046 17.4103 3.10787 17.454C3.224 17.561 3.34053 17.6675 3.45727 17.7739C3.74287 17.6906 4.0107 17.5881 4.27999 17.4669C4.47188 17.3848 4.61836 17.3439 4.83301 17.373C4.97998 17.4314 5.11646 17.5044 5.25486 17.5785C5.60779 17.7597 5.95334 17.8973 6.33856 18.0057C6.45805 18.0395 6.57733 18.0735 6.69559 18.1109C6.73647 18.1235 6.73647 18.1235 6.77816 18.1364C6.94411 18.2209 7.00588 18.3725 7.07043 18.5308C7.08553 18.5677 7.10063 18.6046 7.11619 18.6426C7.13151 18.6809 7.14684 18.7192 7.16262 18.7586C7.17845 18.797 7.19427 18.8354 7.21057 18.875C7.32653 19.1613 7.32653 19.1613 7.32653 19.2973C7.86565 19.2973 8.40477 19.2973 8.96022 19.2973C9.00278 19.165 9.04534 19.0327 9.0892 18.8964C9.12975 18.7901 9.171 18.6855 9.21548 18.5807C9.22576 18.5552 9.23604 18.5297 9.24664 18.5034C9.31337 18.3457 9.38121 18.2443 9.51911 18.1347C9.63223 18.0898 9.63223 18.0898 9.76111 18.0542C9.80879 18.0405 9.85646 18.0268 9.90558 18.0127C9.95627 17.9984 10.007 17.9841 10.0592 17.9694C10.4779 17.8467 10.8612 17.7068 11.2387 17.4973C11.4342 17.3912 11.5657 17.338 11.7977 17.373C12.0072 17.4489 12.2061 17.5446 12.4069 17.6385C12.4476 17.6568 12.4884 17.6752 12.5304 17.6941C12.5672 17.7113 12.604 17.7285 12.6419 17.7462C12.7408 17.7824 12.7408 17.7824 12.8287 17.7509C13.0152 17.6281 13.173 17.4734 13.3349 17.3241C13.4017 17.2629 13.4694 17.2027 13.5373 17.1425C13.5798 17.1036 13.6222 17.0645 13.6646 17.0254C13.7228 16.9726 13.7228 16.9726 13.7821 16.9188C13.8745 16.8166 13.8745 16.8166 13.857 16.6887C13.8238 16.5878 13.789 16.497 13.7389 16.4026C13.7158 16.3574 13.7158 16.3574 13.6923 16.3113C13.66 16.2494 13.6274 16.1877 13.5945 16.1262C13.4855 15.9106 13.4362 15.7275 13.4744 15.4889C13.5187 15.3927 13.5187 15.3927 13.5818 15.3135C13.8998 14.8621 14.088 14.3321 14.2395 13.8141C14.3095 13.6392 14.3967 13.5544 14.5774 13.4732C14.6197 13.459 14.6621 13.4447 14.7057 13.43C14.7471 13.4157 14.7886 13.4015 14.8313 13.3868C14.8836 13.3694 14.9359 13.352 14.9898 13.3341C15.1565 13.2779 15.3232 13.2217 15.495 13.1638C15.5092 12.6743 15.5234 12.1848 15.538 11.6805C15.3961 11.6408 15.2542 11.6011 15.1081 11.5602C14.9793 11.5196 14.8531 11.4778 14.7265 11.4324C14.6793 11.4172 14.6793 11.4172 14.6311 11.4017C14.4624 11.3403 14.3636 11.286 14.2778 11.1343C14.1945 10.9493 14.1333 10.7573 14.0709 10.5655C13.9564 10.2256 13.8087 9.92076 13.612 9.61518C13.4818 9.40467 13.4243 9.23704 13.4744 8.99456C13.534 8.82781 13.6096 8.67015 13.6893 8.51099C13.7098 8.46864 13.7303 8.42629 13.7515 8.38266C13.8018 8.27899 13.8527 8.17565 13.9043 8.07252C13.8641 8.0353 13.824 7.99807 13.7826 7.95972C13.634 7.8219 13.4856 7.68396 13.3372 7.54597C13.2729 7.48621 13.2086 7.42648 13.1442 7.36679C13.0518 7.28111 12.9595 7.1953 12.8673 7.10946C12.8383 7.08269 12.8094 7.05592 12.7796 7.02834C12.7529 7.00347 12.7262 6.97859 12.6988 6.95296C12.6752 6.93106 12.6516 6.90916 12.6273 6.8866C12.5443 6.802 12.5289 6.7522 12.5151 6.63686C12.5321 6.47491 12.571 6.41698 12.7005 6.30863C12.8402 6.25852 12.8402 6.25852 13.0015 6.26854C13.0807 6.32033 13.0807 6.32033 13.1627 6.39067C13.1928 6.41632 13.2228 6.44197 13.2538 6.4684C13.3967 6.59442 13.5385 6.72119 13.6784 6.85014C13.7084 6.87774 13.7383 6.90534 13.7692 6.93378C13.8317 6.9916 13.8943 7.04947 13.9567 7.10741C14.0206 7.16652 14.0847 7.22545 14.149 7.2842C14.2424 7.36964 14.3353 7.45558 14.4281 7.54166C14.4569 7.56781 14.4857 7.59396 14.5153 7.62089C14.762 7.85196 14.762 7.85196 14.7641 8.03243C14.7304 8.14769 14.7304 8.14769 14.6754 8.27297C14.6558 8.31844 14.6361 8.36392 14.6158 8.41077C14.529 8.59672 14.4343 8.77864 14.3359 8.95948C14.274 9.11903 14.2978 9.1994 14.371 9.35185C14.4185 9.44463 14.4675 9.53655 14.5169 9.62846C14.677 9.9304 14.7885 10.221 14.8691 10.5491C14.964 10.7321 15.0824 10.7684 15.28 10.8386C15.3327 10.8582 15.3327 10.8582 15.3865 10.8782C15.537 10.9334 15.688 10.9868 15.8397 11.0391C15.8765 11.0523 15.9133 11.0655 15.9513 11.0792C15.9844 11.0907 16.0176 11.1023 16.0517 11.1142C16.1608 11.17 16.2036 11.221 16.2688 11.3197C16.2855 11.4213 16.2855 11.4213 16.2862 11.5371C16.287 11.6023 16.287 11.6023 16.2879 11.6689C16.2877 11.739 16.2877 11.739 16.2875 11.8106C16.2877 11.8589 16.2879 11.9071 16.2882 11.9568C16.2884 12.0588 16.2884 12.1608 16.288 12.2628C16.2876 12.4189 16.2889 12.5749 16.2902 12.731C16.2903 12.8301 16.2903 12.9292 16.2902 13.0283C16.2906 13.075 16.2911 13.1217 16.2916 13.1698C16.2887 13.4896 16.2887 13.4896 16.197 13.6512C16.0808 13.7368 15.993 13.7666 15.8492 13.7984C15.3142 13.9224 15.3142 13.9224 14.8938 14.2294C14.7645 14.4661 14.6947 14.7174 14.6266 14.9743C14.5782 15.134 14.5022 15.2724 14.4148 15.4162C14.31 15.5889 14.2798 15.6589 14.3342 15.8497C14.3612 15.9127 14.3904 15.9749 14.4215 16.0362C14.4386 16.0706 14.4558 16.1051 14.4734 16.1406C14.5095 16.2121 14.5457 16.2836 14.5819 16.3551C14.762 16.7178 14.762 16.7178 14.7641 16.892C14.6676 17.127 14.4971 17.2781 14.3088 17.4513C14.277 17.4811 14.2451 17.5108 14.2123 17.5414C14.1451 17.604 14.0778 17.6663 14.0103 17.7286C13.9071 17.8239 13.8044 17.9198 13.7018 18.0157C13.6364 18.0765 13.5709 18.1373 13.5054 18.198C13.4747 18.2266 13.4441 18.2553 13.4125 18.2848C13.3836 18.3113 13.3548 18.3378 13.3251 18.3651C13.2999 18.3884 13.2747 18.4117 13.2487 18.4358C13.1122 18.5441 13.0301 18.5761 12.8488 18.5737C12.5619 18.5317 12.3065 18.3887 12.05 18.2682C12.0096 18.2501 11.9691 18.2319 11.9275 18.2132C11.8912 18.1962 11.8549 18.1793 11.8175 18.1618C11.6791 18.1264 11.6229 18.1552 11.4967 18.2149C11.466 18.2278 11.4353 18.2407 11.4036 18.2539C11.3728 18.2674 11.3421 18.2808 11.3103 18.2946C11.2755 18.3095 11.2407 18.3245 11.2048 18.3399C11.1292 18.3725 11.0537 18.4055 10.9783 18.4388C10.8037 18.514 10.6434 18.5814 10.4522 18.6073C10.1983 18.6457 10.1983 18.6457 9.99202 18.7761C9.81401 19.0656 9.71068 19.3888 9.61086 19.7077C9.55503 19.8345 9.50377 19.8924 9.39014 19.9788C9.27758 19.9989 9.27758 19.9989 9.14839 19.9989C9.0999 19.9993 9.05141 19.9997 9.00144 20.0001C8.94927 19.9996 8.89709 19.9991 8.84334 19.9987C8.7896 19.9987 8.73585 19.9988 8.68048 19.9989C8.56684 19.9988 8.45326 19.9984 8.33963 19.9975C8.19419 19.9964 8.04879 19.9965 7.90335 19.997C7.76436 19.9973 7.62539 19.9967 7.48641 19.9962C7.40814 19.9964 7.40814 19.9964 7.3283 19.9965C7.27981 19.996 7.23131 19.9955 7.18135 19.995C7.13872 19.9948 7.09608 19.9946 7.05216 19.9943C6.92096 19.9762 6.86321 19.943 6.76764 19.8585C6.70865 19.7505 6.70865 19.7505 6.6568 19.6216C6.63796 19.5753 6.61911 19.5291 6.5997 19.4814C6.58064 19.433 6.56157 19.3847 6.54193 19.3349C6.5222 19.2864 6.50247 19.2379 6.48214 19.1879C6.33772 18.8294 6.33772 18.8294 6.33772 18.7361C6.26324 18.7237 6.26324 18.7237 6.18725 18.711C5.99359 18.6705 5.80885 18.6123 5.62298 18.5481C5.59311 18.5382 5.56323 18.5283 5.53245 18.5181C5.3797 18.4652 5.24649 18.4093 5.11296 18.3217C4.95331 18.2223 4.81449 18.1401 4.61805 18.1347C4.27869 18.2165 3.96673 18.3742 3.66096 18.5308C3.51471 18.5866 3.44198 18.6036 3.2853 18.5757C3.15827 18.4938 3.05091 18.3962 2.94136 18.2951C2.91458 18.2711 2.88779 18.2471 2.86019 18.2223C2.77854 18.1485 2.69803 18.0737 2.61775 17.9986C2.58876 17.9716 2.55976 17.9447 2.52989 17.9168C2.46933 17.8604 2.40882 17.8039 2.34837 17.7474C2.25552 17.6606 2.16245 17.574 2.06935 17.4874C2.01031 17.4324 1.95128 17.3773 1.89226 17.3222C1.86441 17.2963 1.83656 17.2704 1.80787 17.2437C1.7823 17.2197 1.75673 17.1958 1.73038 17.1711C1.70784 17.15 1.6853 17.129 1.66207 17.1073C1.56463 17.0071 1.54589 16.913 1.54764 16.779C1.57922 16.6255 1.67151 16.5002 1.75355 16.3655C1.97328 16.0107 1.97328 16.0107 2.02642 15.6148C1.95592 15.397 1.83582 15.2064 1.7072 15.0143C1.62854 14.8917 1.57625 14.7683 1.52263 14.6345C1.50651 14.5944 1.49038 14.5543 1.47376 14.513C1.42826 14.3824 1.40389 14.2626 1.39366 14.1259C1.33957 14.1127 1.28548 14.0994 1.22975 14.0858C0.993505 14.0191 0.765123 13.9366 0.53651 13.8503C0.500359 13.8371 0.464208 13.824 0.426962 13.8105C0.392675 13.7973 0.358388 13.784 0.323062 13.7704C0.292252 13.7588 0.261443 13.7472 0.2297 13.7352C0.117579 13.6671 0.0784376 13.5953 0.0179207 13.4845C0.00154292 13.381 0.00154292 13.381 0.00123197 13.2699C0.000825422 13.228 0.000418871 13.1861 0 13.143C0.000391614 13.0757 0.000391614 13.0757 0.00079114 13.0072C0.000667746 12.9608 0.000544351 12.9144 0.000417218 12.8666C0.00032955 12.7686 0.000566848 12.6706 0.00110602 12.5726C0.00179625 12.4227 0.00111227 12.2728 0.000287329 12.1229C0.000372559 12.0276 0.000537807 11.9323 0.00079114 11.8371C0.000530064 11.7923 0.000268987 11.7475 0 11.7013C0.000406551 11.6594 0.000813102 11.6175 0.00123197 11.5744C0.00133459 11.5377 0.0014372 11.501 0.00154292 11.4632C0.0214085 11.3378 0.0682506 11.2619 0.146896 11.1593C0.235011 11.109 0.235011 11.109 0.335489 11.0738C0.372315 11.0606 0.409141 11.0473 0.447083 11.0336C0.485461 11.0205 0.523839 11.0074 0.563379 10.994C0.600926 10.9806 0.638472 10.9672 0.677157 10.9534C0.71426 10.9402 0.751363 10.9271 0.78959 10.9135C0.826125 10.9005 0.862661 10.8875 0.900303 10.8742C1.00673 10.8386 1.00673 10.8386 1.10678 10.8133C1.21155 10.7878 1.21155 10.7878 1.35067 10.7184C1.41119 10.6052 1.44361 10.5227 1.47427 10.4027C1.53754 10.1823 1.60623 9.98948 1.73524 9.79429C1.98015 9.4372 1.98015 9.4372 2.01626 9.02901C1.91912 8.7453 1.77113 8.48818 1.60862 8.23288C1.53853 8.10217 1.54553 8.01728 1.56563 7.87208C1.62243 7.79736 1.62243 7.79736 1.69767 7.72088C1.72507 7.69288 1.75248 7.66489 1.78072 7.63604C1.91305 7.50554 2.04688 7.37673 2.18296 7.24961C2.21181 7.22258 2.24066 7.19554 2.27039 7.16769C2.33073 7.11122 2.39114 7.05479 2.4516 6.99842C2.54428 6.91192 2.6366 6.82509 2.72892 6.73825C2.78785 6.68319 2.84679 6.62814 2.90576 6.57312C2.94708 6.53417 2.94708 6.53417 2.98922 6.49442C3.02778 6.45866 3.02778 6.45866 3.06711 6.42217C3.10083 6.39064 3.10083 6.39064 3.13523 6.35847C3.29201 6.23653 3.44282 6.26828 3.62923 6.30863Z" fill="#777777"/>
<path d="M18.3698 1.04444C18.4103 1.04379 18.4508 1.04315 18.4925 1.04248C18.9015 1.04222 19.2157 1.12942 19.5325 1.37423C19.8606 1.68126 19.9741 2.05166 19.9781 2.47461C19.978 2.51141 19.978 2.54821 19.9779 2.58612C19.9782 2.626 19.9784 2.66588 19.9787 2.70696C19.9794 2.84002 19.9795 2.97308 19.9797 3.10614C19.9801 3.20177 19.9805 3.29741 19.981 3.39304C19.9821 3.65246 19.9827 3.91188 19.983 4.17131C19.9833 4.3335 19.9836 4.49569 19.984 4.65788C19.9851 5.10757 19.986 5.55725 19.9862 6.00694C19.9863 6.05004 19.9863 6.05004 19.9863 6.09402C19.9863 6.13722 19.9863 6.13722 19.9864 6.18129C19.9864 6.23965 19.9864 6.298 19.9865 6.35636C19.9865 6.3853 19.9865 6.41425 19.9865 6.44407C19.9869 6.91294 19.9884 7.3818 19.9904 7.85067C19.9924 8.33286 19.9935 8.81505 19.9936 9.29724C19.9937 9.56765 19.9942 9.83805 19.9957 10.1085C19.9971 10.3629 19.9973 10.6173 19.9966 10.8717C19.9965 10.9649 19.9969 11.058 19.9977 11.1511C20.0054 12.0399 20.0054 12.0399 19.7079 12.4421C19.6747 12.4959 19.642 12.55 19.6098 12.6043C19.5782 12.6539 19.5464 12.7034 19.5144 12.7528C19.3815 12.9593 19.2515 13.1667 19.1255 13.377C19.0859 13.4422 19.0859 13.4422 19.0456 13.5087C18.9935 13.5947 18.9419 13.681 18.8909 13.7676C18.79 13.9331 18.71 14.0611 18.5478 14.1787C18.374 14.2153 18.2791 14.1936 18.1172 14.1258C18.0352 14.0406 18.0352 14.0406 17.9667 13.9254C17.9467 13.8927 17.9467 13.8927 17.9262 13.8594C17.8942 13.807 17.8626 13.7545 17.8314 13.7018C17.7618 13.5855 17.6902 13.4704 17.6186 13.3552C17.481 13.1341 17.3443 12.9126 17.2079 12.6909C17.1021 12.5199 16.9943 12.3499 16.8862 12.18C16.807 12.047 16.779 11.9444 16.7788 11.7946C16.7786 11.7605 16.7784 11.7265 16.7783 11.6914C16.7783 11.6539 16.7784 11.6165 16.7784 11.5779C16.7783 11.5382 16.7781 11.4984 16.778 11.4574C16.7776 11.3236 16.7776 11.1897 16.7775 11.0558C16.7773 10.9601 16.7771 10.8643 16.7769 10.7686C16.7763 10.508 16.776 10.2474 16.7758 9.98685C16.7757 9.82406 16.7755 9.66127 16.7753 9.49849C16.7748 9.04761 16.7744 8.59672 16.7742 8.14584C16.7742 8.11698 16.7742 8.08811 16.7742 8.05838C16.7742 8.02945 16.7742 8.00051 16.7742 7.97071C16.7741 7.91208 16.7741 7.85346 16.7741 7.79483C16.7741 7.76575 16.7741 7.73667 16.7741 7.70671C16.7739 7.23596 16.7732 6.76522 16.7721 6.29447C16.7711 5.81093 16.7706 5.32738 16.7705 4.84384C16.7705 4.57245 16.7703 4.30106 16.7695 4.02966C16.7688 3.77423 16.7687 3.5188 16.7691 3.26336C16.7691 3.16973 16.7689 3.0761 16.7685 2.98247C16.7679 2.85437 16.7682 2.72629 16.7686 2.59819C16.7683 2.56138 16.7679 2.52457 16.7676 2.48664C16.7708 2.08702 16.8838 1.72064 17.1714 1.41776C17.5449 1.11654 17.8858 1.04291 18.3698 1.04444ZM17.7025 1.91746C17.5441 2.1037 17.5096 2.22616 17.5111 2.45944C17.5112 2.49322 17.5113 2.527 17.5114 2.56181C17.5118 2.6043 17.5122 2.64679 17.5126 2.69057C17.5135 2.82617 17.5144 2.96177 17.5153 3.10148C18.0828 3.10148 18.6503 3.10148 19.235 3.10148C19.2385 2.96919 19.2421 2.83689 19.2457 2.70059C19.2481 2.63905 19.2481 2.63905 19.2505 2.57626C19.2536 2.32923 19.2163 2.14392 19.063 1.93891C18.8489 1.74899 18.6688 1.73038 18.3832 1.72845C18.3381 1.72721 18.3381 1.72721 18.2921 1.72594C18.0541 1.72428 17.8817 1.76864 17.7025 1.91746ZM17.5153 3.78298C17.5153 6.34944 17.5153 8.91591 17.5153 11.5601C18.0828 11.5601 18.6503 11.5601 19.235 11.5601C19.235 8.99368 19.235 6.42722 19.235 3.78298C18.6675 3.78298 18.1 3.78298 17.5153 3.78298ZM17.8162 12.2416C18.0465 12.6974 18.0465 12.6974 18.3321 13.1236C18.3605 13.1236 18.3889 13.1236 18.4181 13.1236C18.5042 12.9842 18.5902 12.8447 18.6761 12.7052C18.7007 12.6654 18.7253 12.6255 18.7506 12.5845C18.7739 12.5467 18.7972 12.5088 18.8212 12.4698C18.8428 12.4347 18.8644 12.3997 18.8867 12.3636C18.9374 12.2914 18.9374 12.2914 18.934 12.2416C18.5651 12.2416 18.1963 12.2416 17.8162 12.2416Z" fill="#777777"/>
<path d="M4.87612 9.11482C5.00241 9.17495 5.00241 9.17495 5.09108 9.27517C5.12105 9.47791 5.11375 9.58872 4.98092 9.75373C4.93226 9.80849 4.88296 9.86275 4.83313 9.91659C4.13062 10.7252 3.8082 11.7221 3.88731 12.7629C4.00995 13.8276 4.52382 14.783 5.39203 15.4889C6.36241 16.1976 7.51127 16.5198 8.74002 16.3834C9.53385 16.2636 10.2706 15.9622 10.895 15.4889C10.9306 15.4627 10.9661 15.4366 11.0028 15.4096C11.7723 14.8091 12.2971 13.8522 12.3997 12.9232C12.4571 11.7679 12.2335 10.7303 11.4109 9.83641C11.379 9.80417 11.347 9.77192 11.3142 9.7387C11.2194 9.60937 11.2042 9.5106 11.1959 9.35535C11.2538 9.23719 11.2856 9.17324 11.4109 9.11482C11.6027 9.09027 11.6897 9.10161 11.8542 9.20001C12.4358 9.72048 12.837 10.4829 13.0446 11.1994C13.0583 11.2449 13.0719 11.2904 13.0861 11.3372C13.4039 12.6046 13.125 13.9127 12.3997 15.0078C11.6388 16.0873 10.4587 16.795 9.11082 17.0649C9.04648 17.0749 8.98199 17.0842 8.91736 17.0924C8.88532 17.0968 8.85329 17.1012 8.82029 17.1057C7.44614 17.2643 6.08302 16.9037 4.99435 16.1128C3.9236 15.3145 3.28424 14.1978 3.12209 12.9301C2.99356 11.6332 3.39546 10.4045 4.27424 9.39544C4.30367 9.35968 4.33309 9.32392 4.36341 9.28708C4.52106 9.11174 4.63767 9.09182 4.87612 9.11482Z" fill="#777777"/>
<path d="M3.1136 2.86102C3.25545 2.9216 3.38518 2.99594 3.51665 3.07399C3.55129 3.0935 3.58593 3.11301 3.62161 3.13311C3.90915 3.29995 3.90915 3.29995 3.97344 3.46235C3.97023 3.63013 3.95662 3.71426 3.83909 3.84319C3.6721 3.92443 3.59788 3.90229 3.41455 3.86324C3.27664 3.80812 3.14729 3.7418 3.01687 3.67282C2.9824 3.65556 2.94793 3.6383 2.91242 3.62051C2.72887 3.52492 2.59278 3.4518 2.51172 3.26191C2.51172 3.09363 2.52795 3.01154 2.64338 2.88107C2.81066 2.80142 2.93756 2.81714 3.1136 2.86102Z" fill="#777777"/>
<path d="M13.6029 2.86096C13.7077 2.9261 13.7077 2.9261 13.7749 3.02131C13.799 3.15912 13.799 3.15912 13.7749 3.30193C13.6119 3.48185 13.4166 3.5981 13.2025 3.71785C13.1715 3.7364 13.1405 3.75495 13.1086 3.77407C12.8796 3.90236 12.7457 3.92333 12.4851 3.86317C12.3541 3.76774 12.3557 3.69981 12.3319 3.54497C12.3264 3.4662 12.3264 3.4662 12.3561 3.38211C12.5361 3.22021 12.7392 3.10213 12.9553 2.98624C12.9844 2.9696 13.0136 2.95296 13.0436 2.93581C13.2453 2.82762 13.3693 2.80151 13.6029 2.86096Z" fill="#777777"/>
<path d="M11.3679 0.776384C11.4754 0.836517 11.4754 0.836517 11.5398 0.936738C11.5779 1.23198 11.4752 1.40535 11.3115 1.65332C11.29 1.68753 11.2685 1.72174 11.2464 1.75699C11.0861 2.00723 11.0861 2.00723 10.938 2.0993C10.7504 2.12197 10.6672 2.11908 10.5107 2.01662C10.3959 1.86413 10.3988 1.80304 10.4221 1.61824C10.4856 1.47978 10.5665 1.35333 10.6505 1.22487C10.6719 1.19048 10.6934 1.15609 10.7155 1.12066C10.8845 0.855422 11.012 0.72431 11.3679 0.776384Z" fill="#777777"/>
<path d="M5.20644 0.74585C5.44677 0.819541 5.58434 1.10147 5.7037 1.29754C5.71877 1.3212 5.73385 1.34487 5.74938 1.36926C5.84095 1.51836 5.89527 1.64679 5.90791 1.81869C5.83895 1.96016 5.79005 2.01222 5.64996 2.09931C5.49968 2.11758 5.42022 2.11566 5.29041 2.04043C5.13872 1.90464 5.04872 1.75429 4.94866 1.58317C4.92912 1.55149 4.90959 1.51981 4.88946 1.48717C4.78573 1.31235 4.71484 1.1821 4.74713 0.976828C4.85798 0.770113 4.9769 0.752922 5.20644 0.74585Z" fill="#777777"/>
<path d="M8.234 0.00154078C8.3479 0.0198614 8.4096 0.0562593 8.48775 0.13496C8.55515 0.323508 8.54045 0.513752 8.54149 0.711232C8.54237 0.752987 8.54326 0.794741 8.54417 0.837761C8.54628 1.22088 8.54628 1.22088 8.40176 1.3777C8.29247 1.45502 8.23911 1.45824 8.10082 1.45287C7.94904 1.41159 7.89746 1.37231 7.79988 1.25744C7.77763 1.14242 7.77763 1.14242 7.77704 1.01064C7.77682 0.963049 7.7766 0.915454 7.77637 0.866418C7.77703 0.81686 7.7777 0.767302 7.77838 0.716243C7.77772 0.666685 7.77705 0.617127 7.77637 0.566068C7.77659 0.518474 7.77681 0.47088 7.77704 0.421843C7.77723 0.378357 7.77743 0.334872 7.77763 0.290068C7.82568 0.0416566 7.99184 -0.0102328 8.234 0.00154078Z" fill="#777777"/>
</svg>
