<svg width="20" height="20" viewBox="0 0 20 20" fill="none" xmlns="http://www.w3.org/2000/svg">
<path d="M9.23828 0.499818C9.09375 0.773095 8.92188 1.09712 8.85547 1.21815L8.73828 1.43677L7.97266 1.5656C7.55078 1.63587 7.19141 1.71005 7.16797 1.72957C7.14844 1.74518 7.06641 1.96771 6.98438 2.21756L6.83984 2.67432L7.40625 3.2443L7.96875 3.81428L7.85547 4.61459C7.78906 5.05184 7.75 5.42271 7.76562 5.43442C7.78125 5.45004 7.96484 5.58277 8.17188 5.73893L8.55469 6.01611L9.27734 5.65695L10 5.29388L10.7227 5.65695L11.4453 6.01611L11.8555 5.71941C12.25 5.43052 12.2656 5.4149 12.2461 5.29778C12.2344 5.23142 12.1797 4.87225 12.1289 4.49747L12.0312 3.81428L12.5938 3.2443L13.1602 2.67432L13.0156 2.21756C12.9336 1.96771 12.8516 1.74518 12.832 1.72566C12.8086 1.70614 12.4492 1.63197 12.0234 1.5617L11.2578 1.43286L10.8867 0.730152L10.5117 0.0235349L10.0078 0.011823L9.5 0.00011111L9.23828 0.499818ZM10.25 2.03407C10.3711 2.26831 10.4883 2.47132 10.5039 2.47913C10.5195 2.49084 10.7383 2.53378 10.9922 2.57672C11.2461 2.61967 11.4648 2.66652 11.4766 2.67823C11.4883 2.68994 11.3398 2.86171 11.1445 3.06082L10.7891 3.41998L10.8633 3.90797C10.9023 4.17735 10.9375 4.40768 10.9375 4.4272C10.9375 4.44282 10.7266 4.34912 10.4688 4.22029L10 3.98605L9.53125 4.22029C9.27344 4.34912 9.0625 4.44282 9.0625 4.4272C9.0625 4.40768 9.09766 4.17735 9.13672 3.90797L9.21094 3.41998L8.85547 3.06082C8.66016 2.86171 8.50781 2.68994 8.51953 2.68213C8.53125 2.67042 8.75 2.62357 9.00391 2.58063C9.26172 2.53378 9.48438 2.48693 9.5 2.47913C9.51562 2.47132 9.62891 2.26831 9.75 2.03407C9.875 1.79593 9.98828 1.60464 10 1.60464C10.0117 1.60464 10.125 1.79593 10.25 2.03407Z" fill="#777777"/>
<path d="M7.98047 8.72536L5.97656 10.6812V11.2825V11.8798H6.67969H7.38281V12.6606V13.4413H5.27344H3.16406V16.1351V18.8288H1.58203H0V19.4144V20H10H20V19.4144V18.8288H18.418H16.8359V16.6231V14.4173H14.7266H12.6172V13.1486V11.8798H13.3203H14.0234V11.2825V10.6812L12.0273 8.73317C10.9336 7.66349 10.0234 6.78119 10.0078 6.77729C9.99219 6.77338 9.07812 7.64787 7.98047 8.72536ZM11.1914 9.55691L12.3633 10.7047L11.9062 10.7086H11.4453V14.7687V18.8288H10H8.55469V14.7687V10.7086H8.09766L7.63672 10.7047L8.80859 9.55691C9.45312 8.92447 9.98828 8.40914 10 8.40914C10.0117 8.40914 10.5469 8.92447 11.1914 9.55691ZM7.38281 16.7207V18.8288H5.85938H4.33594V16.7207V14.6125H5.85938H7.38281V16.7207ZM15.6641 17.2087V18.8288H14.1406H12.6172V17.2087V15.5885H14.1406H15.6641V17.2087Z" fill="#777777"/>
</svg>
