<svg width="20" height="20" viewBox="0 0 20 20" fill="none" xmlns="http://www.w3.org/2000/svg">
<path d="M9.41406 5V9.99609L6.49609 10.0078L3.57422 10.0195L3.30078 10.1133C2.76953 10.2891 2.42969 10.4961 2.05078 10.8789C1.75391 11.1719 1.66406 11.293 1.51172 11.6016C1.26172 12.1055 1.19531 12.3789 1.19531 12.9297C1.19141 13.5547 1.33594 14.0703 1.63672 14.5156L1.75391 14.6875H0.878906H0V17.3438V20H10H20V17.3438V14.6875H19.4141H18.8281V12.3438V10H14.707H10.5859V8.53516V7.07031H14.6875C16.9453 7.07031 18.7891 7.05859 18.7891 7.04297C18.7891 7.03125 18.3047 6.375 17.7148 5.58594C17.125 4.79688 16.6406 4.13672 16.6406 4.12109C16.6406 4.10547 17.125 3.44531 17.7148 2.65625C18.3047 1.86719 18.7891 1.21094 18.7891 1.19922C18.7891 1.18359 16.9453 1.17188 14.6875 1.17188H10.5859V0.585938V0H10H9.41406V5ZM16.4453 2.36328C16.4453 2.375 16.1562 2.76953 15.8008 3.24609C15.3984 3.77734 15.1641 4.12109 15.1836 4.15234C15.1992 4.17969 15.4883 4.57031 15.8281 5.02344C16.168 5.47656 16.4453 5.85938 16.4453 5.87109C16.4453 5.88672 15.1289 5.89844 13.5156 5.89844H10.5859V4.12109V2.34375H13.5156C15.1289 2.34375 16.4453 2.35156 16.4453 2.36328ZM17.6562 11.7578V12.3438H12.0703H6.48438V12.9297V13.5156H12.0703H17.6562V14.1016V14.6875L10.6562 14.6797L3.65234 14.668L3.39062 14.5391C2.84375 14.2734 2.47266 13.7812 2.375 13.1914C2.23438 12.3359 2.8125 11.4688 3.67188 11.2422C3.90625 11.1797 4.46094 11.1758 10.793 11.1758L17.6562 11.1719V11.7578ZM2.92969 17.3633V18.8281H2.05078H1.17188V17.3633V15.8984H2.05078H2.92969V17.3633ZM5.30469 17.3516L5.29297 18.8086L4.69922 18.8203L4.10156 18.832V17.3633V15.8984H4.70703H5.3125L5.30469 17.3516ZM13.5156 17.3633V18.8281H10H6.48438V17.3633V15.8984H10H13.5156V17.3633ZM15.8984 17.3633V18.832L15.3047 18.8203L14.707 18.8086L14.6953 17.3516L14.6875 15.8984H15.293H15.8984V17.3633ZM18.8281 17.3633V18.8281H17.9492H17.0703V17.3633V15.8984H17.9492H18.8281V17.3633Z" fill="#777777"/>
</svg>
